<mxfile host="app.diagrams.net" agent="Mozilla/5.0 (Windows NT 10.0; Win64; x64) AppleWebKit/537.36 (KHTML, like Gecko) Chrome/134.0.0.0 Safari/537.36" version="26.2.8">
  <diagram name="Page-1" id="pqF6Z_v2DTTEruveq2y0">
    <mxGraphModel dx="2635" dy="929" grid="1" gridSize="10" guides="1" tooltips="1" connect="1" arrows="1" fold="1" page="1" pageScale="1" pageWidth="850" pageHeight="1100" math="0" shadow="0">
      <root>
        <mxCell id="0" />
        <mxCell id="1" parent="0" />
        <mxCell id="0yXIq40xvylqL-H4ASJS-50" value="" style="strokeWidth=2;html=1;shape=mxgraph.flowchart.database;whiteSpace=wrap;opacity=20;" vertex="1" parent="1">
          <mxGeometry x="-60" y="20" width="750" height="350" as="geometry" />
        </mxCell>
        <mxCell id="0yXIq40xvylqL-H4ASJS-1" value="QualityEngineer" style="shape=umlActor;verticalLabelPosition=bottom;verticalAlign=top;html=1;outlineConnect=0;" vertex="1" parent="1">
          <mxGeometry x="10" y="1020" width="30" height="60" as="geometry" />
        </mxCell>
        <mxCell id="0yXIq40xvylqL-H4ASJS-2" value="Questions" style="swimlane;fontStyle=0;childLayout=stackLayout;horizontal=1;startSize=26;fillColor=none;horizontalStack=0;resizeParent=1;resizeParentMax=0;resizeLast=0;collapsible=1;marginBottom=0;whiteSpace=wrap;html=1;" vertex="1" parent="1">
          <mxGeometry x="425" y="60" width="150" height="218" as="geometry" />
        </mxCell>
        <mxCell id="0yXIq40xvylqL-H4ASJS-3" value="+ field: type" style="text;strokeColor=none;fillColor=none;align=left;verticalAlign=top;spacingLeft=4;spacingRight=4;overflow=hidden;rotatable=0;points=[[0,0.5],[1,0.5]];portConstraint=eastwest;whiteSpace=wrap;html=1;" vertex="1" parent="0yXIq40xvylqL-H4ASJS-2">
          <mxGeometry y="26" width="150" height="26" as="geometry" />
        </mxCell>
        <mxCell id="0yXIq40xvylqL-H4ASJS-4" value="+ String: optionOne" style="text;strokeColor=none;fillColor=none;align=left;verticalAlign=top;spacingLeft=4;spacingRight=4;overflow=hidden;rotatable=0;points=[[0,0.5],[1,0.5]];portConstraint=eastwest;whiteSpace=wrap;html=1;" vertex="1" parent="0yXIq40xvylqL-H4ASJS-2">
          <mxGeometry y="52" width="150" height="26" as="geometry" />
        </mxCell>
        <mxCell id="0yXIq40xvylqL-H4ASJS-73" value="+ String: optionTwo" style="text;strokeColor=none;fillColor=none;align=left;verticalAlign=top;spacingLeft=4;spacingRight=4;overflow=hidden;rotatable=0;points=[[0,0.5],[1,0.5]];portConstraint=eastwest;whiteSpace=wrap;html=1;" vertex="1" parent="0yXIq40xvylqL-H4ASJS-2">
          <mxGeometry y="78" width="150" height="26" as="geometry" />
        </mxCell>
        <mxCell id="0yXIq40xvylqL-H4ASJS-75" value="+ String: optionThree" style="text;strokeColor=none;fillColor=none;align=left;verticalAlign=top;spacingLeft=4;spacingRight=4;overflow=hidden;rotatable=0;points=[[0,0.5],[1,0.5]];portConstraint=eastwest;whiteSpace=wrap;html=1;" vertex="1" parent="0yXIq40xvylqL-H4ASJS-2">
          <mxGeometry y="104" width="150" height="26" as="geometry" />
        </mxCell>
        <mxCell id="0yXIq40xvylqL-H4ASJS-74" value="+ String: optionFour" style="text;strokeColor=none;fillColor=none;align=left;verticalAlign=top;spacingLeft=4;spacingRight=4;overflow=hidden;rotatable=0;points=[[0,0.5],[1,0.5]];portConstraint=eastwest;whiteSpace=wrap;html=1;" vertex="1" parent="0yXIq40xvylqL-H4ASJS-2">
          <mxGeometry y="130" width="150" height="26" as="geometry" />
        </mxCell>
        <mxCell id="0yXIq40xvylqL-H4ASJS-5" value="+ String: correctAnswer" style="text;strokeColor=none;fillColor=none;align=left;verticalAlign=top;spacingLeft=4;spacingRight=4;overflow=hidden;rotatable=0;points=[[0,0.5],[1,0.5]];portConstraint=eastwest;whiteSpace=wrap;html=1;" vertex="1" parent="0yXIq40xvylqL-H4ASJS-2">
          <mxGeometry y="156" width="150" height="62" as="geometry" />
        </mxCell>
        <mxCell id="0yXIq40xvylqL-H4ASJS-10" value="Score" style="swimlane;fontStyle=0;childLayout=stackLayout;horizontal=1;startSize=26;fillColor=none;horizontalStack=0;resizeParent=1;resizeParentMax=0;resizeLast=0;collapsible=1;marginBottom=0;whiteSpace=wrap;html=1;" vertex="1" parent="1">
          <mxGeometry x="10" y="90" width="140" height="104" as="geometry" />
        </mxCell>
        <mxCell id="0yXIq40xvylqL-H4ASJS-11" value="+ int: gamesPlayed" style="text;strokeColor=none;fillColor=none;align=left;verticalAlign=top;spacingLeft=4;spacingRight=4;overflow=hidden;rotatable=0;points=[[0,0.5],[1,0.5]];portConstraint=eastwest;whiteSpace=wrap;html=1;" vertex="1" parent="0yXIq40xvylqL-H4ASJS-10">
          <mxGeometry y="26" width="140" height="26" as="geometry" />
        </mxCell>
        <mxCell id="0yXIq40xvylqL-H4ASJS-12" value="+ string: Wins" style="text;strokeColor=none;fillColor=none;align=left;verticalAlign=top;spacingLeft=4;spacingRight=4;overflow=hidden;rotatable=0;points=[[0,0.5],[1,0.5]];portConstraint=eastwest;whiteSpace=wrap;html=1;" vertex="1" parent="0yXIq40xvylqL-H4ASJS-10">
          <mxGeometry y="52" width="140" height="26" as="geometry" />
        </mxCell>
        <mxCell id="0yXIq40xvylqL-H4ASJS-13" value="+ String: Losses" style="text;strokeColor=none;fillColor=none;align=left;verticalAlign=top;spacingLeft=4;spacingRight=4;overflow=hidden;rotatable=0;points=[[0,0.5],[1,0.5]];portConstraint=eastwest;whiteSpace=wrap;html=1;" vertex="1" parent="0yXIq40xvylqL-H4ASJS-10">
          <mxGeometry y="78" width="140" height="26" as="geometry" />
        </mxCell>
        <mxCell id="0yXIq40xvylqL-H4ASJS-18" value="loginScreen" style="swimlane;fontStyle=0;childLayout=stackLayout;horizontal=1;startSize=26;fillColor=none;horizontalStack=0;resizeParent=1;resizeParentMax=0;resizeLast=0;collapsible=1;marginBottom=0;whiteSpace=wrap;html=1;" vertex="1" parent="1">
          <mxGeometry x="160" y="758.5" width="150" height="234" as="geometry" />
        </mxCell>
        <mxCell id="0yXIq40xvylqL-H4ASJS-19" value="+ String: gameName&amp;nbsp;" style="text;strokeColor=none;fillColor=none;align=left;verticalAlign=top;spacingLeft=4;spacingRight=4;overflow=hidden;rotatable=0;points=[[0,0.5],[1,0.5]];portConstraint=eastwest;whiteSpace=wrap;html=1;" vertex="1" parent="0yXIq40xvylqL-H4ASJS-18">
          <mxGeometry y="26" width="150" height="26" as="geometry" />
        </mxCell>
        <mxCell id="0yXIq40xvylqL-H4ASJS-20" value="+ .JPG : companyLogo" style="text;strokeColor=none;fillColor=none;align=left;verticalAlign=top;spacingLeft=4;spacingRight=4;overflow=hidden;rotatable=0;points=[[0,0.5],[1,0.5]];portConstraint=eastwest;whiteSpace=wrap;html=1;" vertex="1" parent="0yXIq40xvylqL-H4ASJS-18">
          <mxGeometry y="52" width="150" height="26" as="geometry" />
        </mxCell>
        <mxCell id="0yXIq40xvylqL-H4ASJS-31" value="+ button : LOGIN" style="text;strokeColor=none;fillColor=none;align=left;verticalAlign=top;spacingLeft=4;spacingRight=4;overflow=hidden;rotatable=0;points=[[0,0.5],[1,0.5]];portConstraint=eastwest;whiteSpace=wrap;html=1;" vertex="1" parent="0yXIq40xvylqL-H4ASJS-18">
          <mxGeometry y="78" width="150" height="26" as="geometry" />
        </mxCell>
        <mxCell id="0yXIq40xvylqL-H4ASJS-33" value="+ string in: userName" style="text;strokeColor=none;fillColor=none;align=left;verticalAlign=top;spacingLeft=4;spacingRight=4;overflow=hidden;rotatable=0;points=[[0,0.5],[1,0.5]];portConstraint=eastwest;whiteSpace=wrap;html=1;" vertex="1" parent="0yXIq40xvylqL-H4ASJS-18">
          <mxGeometry y="104" width="150" height="26" as="geometry" />
        </mxCell>
        <mxCell id="0yXIq40xvylqL-H4ASJS-21" value="+ string in: passWord&lt;div&gt;&lt;br&gt;&lt;/div&gt;" style="text;strokeColor=none;fillColor=none;align=left;verticalAlign=top;spacingLeft=4;spacingRight=4;overflow=hidden;rotatable=0;points=[[0,0.5],[1,0.5]];portConstraint=eastwest;whiteSpace=wrap;html=1;" vertex="1" parent="0yXIq40xvylqL-H4ASJS-18">
          <mxGeometry y="130" width="150" height="104" as="geometry" />
        </mxCell>
        <mxCell id="0yXIq40xvylqL-H4ASJS-26" value="" style="verticalLabelPosition=bottom;html=1;verticalAlign=top;align=center;strokeColor=none;fillColor=#00BEF2;shape=mxgraph.azure.mobile;pointerEvents=1;" vertex="1" parent="1">
          <mxGeometry x="90" y="950" width="35" height="50" as="geometry" />
        </mxCell>
        <mxCell id="0yXIq40xvylqL-H4ASJS-29" style="edgeStyle=orthogonalEdgeStyle;rounded=0;orthogonalLoop=1;jettySize=auto;html=1;" edge="1" parent="1" source="0yXIq40xvylqL-H4ASJS-27" target="0yXIq40xvylqL-H4ASJS-21">
          <mxGeometry relative="1" as="geometry">
            <Array as="points">
              <mxPoint x="280" y="975" />
              <mxPoint x="280" y="975" />
            </Array>
          </mxGeometry>
        </mxCell>
        <mxCell id="0yXIq40xvylqL-H4ASJS-27" value="" style="shape=image;html=1;verticalAlign=top;verticalLabelPosition=bottom;labelBackgroundColor=#ffffff;imageAspect=0;aspect=fixed;image=https://cdn0.iconfinder.com/data/icons/super-batman/24/3151564_-_droid_r2d2_robot_star_wars-128.png" vertex="1" parent="1">
          <mxGeometry x="90" y="957.5" width="35" height="35" as="geometry" />
        </mxCell>
        <mxCell id="0yXIq40xvylqL-H4ASJS-28" style="edgeStyle=orthogonalEdgeStyle;rounded=0;orthogonalLoop=1;jettySize=auto;html=1;entryX=0.5;entryY=1;entryDx=0;entryDy=0;entryPerimeter=0;" edge="1" parent="1" source="0yXIq40xvylqL-H4ASJS-1" target="0yXIq40xvylqL-H4ASJS-26">
          <mxGeometry relative="1" as="geometry" />
        </mxCell>
        <mxCell id="0yXIq40xvylqL-H4ASJS-51" value="AdminApp-UI" style="swimlane;fontStyle=0;childLayout=stackLayout;horizontal=1;startSize=26;fillColor=none;horizontalStack=0;resizeParent=1;resizeParentMax=0;resizeLast=0;collapsible=1;marginBottom=0;whiteSpace=wrap;html=1;" vertex="1" parent="1">
          <mxGeometry x="-190" y="612" width="140" height="166" as="geometry" />
        </mxCell>
        <mxCell id="0yXIq40xvylqL-H4ASJS-52" value="+int: checkScores" style="text;strokeColor=none;fillColor=none;align=left;verticalAlign=top;spacingLeft=4;spacingRight=4;overflow=hidden;rotatable=0;points=[[0,0.5],[1,0.5]];portConstraint=eastwest;whiteSpace=wrap;html=1;" vertex="1" parent="0yXIq40xvylqL-H4ASJS-51">
          <mxGeometry y="26" width="140" height="26" as="geometry" />
        </mxCell>
        <mxCell id="0yXIq40xvylqL-H4ASJS-53" value="+ String: deleteEntry" style="text;strokeColor=none;fillColor=none;align=left;verticalAlign=top;spacingLeft=4;spacingRight=4;overflow=hidden;rotatable=0;points=[[0,0.5],[1,0.5]];portConstraint=eastwest;whiteSpace=wrap;html=1;" vertex="1" parent="0yXIq40xvylqL-H4ASJS-51">
          <mxGeometry y="52" width="140" height="26" as="geometry" />
        </mxCell>
        <mxCell id="0yXIq40xvylqL-H4ASJS-59" value="+ String: addEntry" style="text;strokeColor=none;fillColor=none;align=left;verticalAlign=top;spacingLeft=4;spacingRight=4;overflow=hidden;rotatable=0;points=[[0,0.5],[1,0.5]];portConstraint=eastwest;whiteSpace=wrap;html=1;" vertex="1" parent="0yXIq40xvylqL-H4ASJS-51">
          <mxGeometry y="78" width="140" height="26" as="geometry" />
        </mxCell>
        <mxCell id="0yXIq40xvylqL-H4ASJS-54" value="+ String: correctAnswer" style="text;strokeColor=none;fillColor=none;align=left;verticalAlign=top;spacingLeft=4;spacingRight=4;overflow=hidden;rotatable=0;points=[[0,0.5],[1,0.5]];portConstraint=eastwest;whiteSpace=wrap;html=1;" vertex="1" parent="0yXIq40xvylqL-H4ASJS-51">
          <mxGeometry y="104" width="140" height="62" as="geometry" />
        </mxCell>
        <mxCell id="0yXIq40xvylqL-H4ASJS-55" value="UserApp-UI" style="swimlane;fontStyle=0;childLayout=stackLayout;horizontal=1;startSize=26;fillColor=none;horizontalStack=0;resizeParent=1;resizeParentMax=0;resizeLast=0;collapsible=1;marginBottom=0;whiteSpace=wrap;html=1;" vertex="1" parent="1">
          <mxGeometry x="550" y="621" width="140" height="104" as="geometry" />
        </mxCell>
        <mxCell id="0yXIq40xvylqL-H4ASJS-56" value="+&amp;nbsp; String: playGame" style="text;strokeColor=none;fillColor=none;align=left;verticalAlign=top;spacingLeft=4;spacingRight=4;overflow=hidden;rotatable=0;points=[[0,0.5],[1,0.5]];portConstraint=eastwest;whiteSpace=wrap;html=1;" vertex="1" parent="0yXIq40xvylqL-H4ASJS-55">
          <mxGeometry y="26" width="140" height="26" as="geometry" />
        </mxCell>
        <mxCell id="0yXIq40xvylqL-H4ASJS-57" value="+ String: checkScore" style="text;strokeColor=none;fillColor=none;align=left;verticalAlign=top;spacingLeft=4;spacingRight=4;overflow=hidden;rotatable=0;points=[[0,0.5],[1,0.5]];portConstraint=eastwest;whiteSpace=wrap;html=1;" vertex="1" parent="0yXIq40xvylqL-H4ASJS-55">
          <mxGeometry y="52" width="140" height="26" as="geometry" />
        </mxCell>
        <mxCell id="0yXIq40xvylqL-H4ASJS-58" value="+function: quitGame" style="text;strokeColor=none;fillColor=none;align=left;verticalAlign=top;spacingLeft=4;spacingRight=4;overflow=hidden;rotatable=0;points=[[0,0.5],[1,0.5]];portConstraint=eastwest;whiteSpace=wrap;html=1;" vertex="1" parent="0yXIq40xvylqL-H4ASJS-55">
          <mxGeometry y="78" width="140" height="26" as="geometry" />
        </mxCell>
        <mxCell id="0yXIq40xvylqL-H4ASJS-61" style="edgeStyle=orthogonalEdgeStyle;rounded=0;orthogonalLoop=1;jettySize=auto;html=1;startArrow=oval;startFill=1;fillColor=#60a917;strokeColor=#2D7600;" edge="1" parent="1" source="0yXIq40xvylqL-H4ASJS-33" target="0yXIq40xvylqL-H4ASJS-51">
          <mxGeometry relative="1" as="geometry" />
        </mxCell>
        <mxCell id="0yXIq40xvylqL-H4ASJS-96" value="ADMIN" style="edgeLabel;html=1;align=center;verticalAlign=middle;resizable=0;points=[];" vertex="1" connectable="0" parent="0yXIq40xvylqL-H4ASJS-61">
          <mxGeometry x="0.1296" y="5" relative="1" as="geometry">
            <mxPoint x="1" as="offset" />
          </mxGeometry>
        </mxCell>
        <mxCell id="0yXIq40xvylqL-H4ASJS-62" style="edgeStyle=orthogonalEdgeStyle;rounded=0;orthogonalLoop=1;jettySize=auto;html=1;startArrow=oval;startFill=1;" edge="1" parent="1" source="0yXIq40xvylqL-H4ASJS-33">
          <mxGeometry relative="1" as="geometry">
            <mxPoint x="581" y="730" as="targetPoint" />
          </mxGeometry>
        </mxCell>
        <mxCell id="0yXIq40xvylqL-H4ASJS-98" value="Standard&amp;nbsp;USER" style="edgeLabel;html=1;align=center;verticalAlign=middle;resizable=0;points=[];" vertex="1" connectable="0" parent="0yXIq40xvylqL-H4ASJS-62">
          <mxGeometry x="-0.0852" y="-2" relative="1" as="geometry">
            <mxPoint as="offset" />
          </mxGeometry>
        </mxCell>
        <mxCell id="0yXIq40xvylqL-H4ASJS-101" style="edgeStyle=orthogonalEdgeStyle;rounded=0;orthogonalLoop=1;jettySize=auto;html=1;startArrow=box;startFill=0;" edge="1" parent="1" source="0yXIq40xvylqL-H4ASJS-63" target="0yXIq40xvylqL-H4ASJS-89">
          <mxGeometry relative="1" as="geometry" />
        </mxCell>
        <mxCell id="0yXIq40xvylqL-H4ASJS-63" value="publishQuestion" style="swimlane;fontStyle=0;childLayout=stackLayout;horizontal=1;startSize=26;fillColor=none;horizontalStack=0;resizeParent=1;resizeParentMax=0;resizeLast=0;collapsible=1;marginBottom=0;whiteSpace=wrap;html=1;" vertex="1" parent="1">
          <mxGeometry x="300" y="450" width="140" height="208" as="geometry" />
        </mxCell>
        <mxCell id="0yXIq40xvylqL-H4ASJS-64" value="+&amp;nbsp; String: askQuestion" style="text;strokeColor=none;fillColor=none;align=left;verticalAlign=top;spacingLeft=4;spacingRight=4;overflow=hidden;rotatable=0;points=[[0,0.5],[1,0.5]];portConstraint=eastwest;whiteSpace=wrap;html=1;" vertex="1" parent="0yXIq40xvylqL-H4ASJS-63">
          <mxGeometry y="26" width="140" height="26" as="geometry" />
        </mxCell>
        <mxCell id="0yXIq40xvylqL-H4ASJS-67" value="+function: quitGame" style="text;strokeColor=none;fillColor=none;align=left;verticalAlign=top;spacingLeft=4;spacingRight=4;overflow=hidden;rotatable=0;points=[[0,0.5],[1,0.5]];portConstraint=eastwest;whiteSpace=wrap;html=1;" vertex="1" parent="0yXIq40xvylqL-H4ASJS-63">
          <mxGeometry y="52" width="140" height="26" as="geometry" />
        </mxCell>
        <mxCell id="0yXIq40xvylqL-H4ASJS-65" value="+ String: optionOne" style="text;strokeColor=none;fillColor=none;align=left;verticalAlign=top;spacingLeft=4;spacingRight=4;overflow=hidden;rotatable=0;points=[[0,0.5],[1,0.5]];portConstraint=eastwest;whiteSpace=wrap;html=1;" vertex="1" parent="0yXIq40xvylqL-H4ASJS-63">
          <mxGeometry y="78" width="140" height="26" as="geometry" />
        </mxCell>
        <mxCell id="0yXIq40xvylqL-H4ASJS-68" value="+ String: optionTwo" style="text;strokeColor=none;fillColor=none;align=left;verticalAlign=top;spacingLeft=4;spacingRight=4;overflow=hidden;rotatable=0;points=[[0,0.5],[1,0.5]];portConstraint=eastwest;whiteSpace=wrap;html=1;" vertex="1" parent="0yXIq40xvylqL-H4ASJS-63">
          <mxGeometry y="104" width="140" height="26" as="geometry" />
        </mxCell>
        <mxCell id="0yXIq40xvylqL-H4ASJS-105" value="+ String: optionThree" style="text;strokeColor=none;fillColor=none;align=left;verticalAlign=top;spacingLeft=4;spacingRight=4;overflow=hidden;rotatable=0;points=[[0,0.5],[1,0.5]];portConstraint=eastwest;whiteSpace=wrap;html=1;" vertex="1" parent="0yXIq40xvylqL-H4ASJS-63">
          <mxGeometry y="130" width="140" height="26" as="geometry" />
        </mxCell>
        <mxCell id="0yXIq40xvylqL-H4ASJS-69" value="+ String: optionFour" style="text;strokeColor=none;fillColor=none;align=left;verticalAlign=top;spacingLeft=4;spacingRight=4;overflow=hidden;rotatable=0;points=[[0,0.5],[1,0.5]];portConstraint=eastwest;whiteSpace=wrap;html=1;" vertex="1" parent="0yXIq40xvylqL-H4ASJS-63">
          <mxGeometry y="156" width="140" height="26" as="geometry" />
        </mxCell>
        <mxCell id="0yXIq40xvylqL-H4ASJS-66" value="+ int: trackScore" style="text;strokeColor=none;fillColor=none;align=left;verticalAlign=top;spacingLeft=4;spacingRight=4;overflow=hidden;rotatable=0;points=[[0,0.5],[1,0.5]];portConstraint=eastwest;whiteSpace=wrap;html=1;" vertex="1" parent="0yXIq40xvylqL-H4ASJS-63">
          <mxGeometry y="182" width="140" height="26" as="geometry" />
        </mxCell>
        <mxCell id="0yXIq40xvylqL-H4ASJS-71" style="edgeStyle=orthogonalEdgeStyle;rounded=0;orthogonalLoop=1;jettySize=auto;html=1;" edge="1" parent="1" source="0yXIq40xvylqL-H4ASJS-56" target="0yXIq40xvylqL-H4ASJS-63">
          <mxGeometry relative="1" as="geometry" />
        </mxCell>
        <mxCell id="0yXIq40xvylqL-H4ASJS-99" value="Standard&amp;nbsp;USER" style="edgeLabel;html=1;align=center;verticalAlign=middle;resizable=0;points=[];" vertex="1" connectable="0" parent="0yXIq40xvylqL-H4ASJS-71">
          <mxGeometry x="-0.0673" y="-2" relative="1" as="geometry">
            <mxPoint as="offset" />
          </mxGeometry>
        </mxCell>
        <mxCell id="0yXIq40xvylqL-H4ASJS-76" value="setTimer" style="swimlane;fontStyle=0;childLayout=stackLayout;horizontal=1;startSize=26;fillColor=none;horizontalStack=0;resizeParent=1;resizeParentMax=0;resizeLast=0;collapsible=1;marginBottom=0;whiteSpace=wrap;html=1;" vertex="1" parent="1">
          <mxGeometry x="-65" y="450" width="180" height="110" as="geometry" />
        </mxCell>
        <mxCell id="0yXIq40xvylqL-H4ASJS-77" value="+function: timer&lt;div&gt;+ int: seconds&lt;/div&gt;&lt;div&gt;+ string: getScore&lt;/div&gt;&lt;div&gt;&lt;br&gt;&lt;/div&gt;" style="text;strokeColor=none;fillColor=none;align=left;verticalAlign=top;spacingLeft=4;spacingRight=4;overflow=hidden;rotatable=0;points=[[0,0.5],[1,0.5]];portConstraint=eastwest;whiteSpace=wrap;html=1;" vertex="1" parent="0yXIq40xvylqL-H4ASJS-76">
          <mxGeometry y="26" width="180" height="84" as="geometry" />
        </mxCell>
        <mxCell id="0yXIq40xvylqL-H4ASJS-81" style="edgeStyle=orthogonalEdgeStyle;rounded=0;orthogonalLoop=1;jettySize=auto;html=1;" edge="1" parent="1" source="0yXIq40xvylqL-H4ASJS-79" target="0yXIq40xvylqL-H4ASJS-67">
          <mxGeometry relative="1" as="geometry">
            <Array as="points">
              <mxPoint x="260" y="518" />
              <mxPoint x="260" y="520" />
            </Array>
          </mxGeometry>
        </mxCell>
        <mxCell id="0yXIq40xvylqL-H4ASJS-79" value="" style="points=[[0.145,0.145,0],[0.5,0,0],[0.855,0.145,0],[1,0.5,0],[0.855,0.855,0],[0.5,1,0],[0.145,0.855,0],[0,0.5,0]];shape=mxgraph.bpmn.event;html=1;verticalLabelPosition=bottom;labelBackgroundColor=#ffffff;verticalAlign=top;align=center;perimeter=ellipsePerimeter;outlineConnect=0;aspect=fixed;outline=eventNonint;symbol=timer;" vertex="1" parent="1">
          <mxGeometry x="190" y="493" width="50" height="50" as="geometry" />
        </mxCell>
        <mxCell id="0yXIq40xvylqL-H4ASJS-80" style="edgeStyle=orthogonalEdgeStyle;rounded=0;orthogonalLoop=1;jettySize=auto;html=1;" edge="1" parent="1" source="0yXIq40xvylqL-H4ASJS-77" target="0yXIq40xvylqL-H4ASJS-79">
          <mxGeometry relative="1" as="geometry" />
        </mxCell>
        <mxCell id="0yXIq40xvylqL-H4ASJS-107" value="Text" style="edgeLabel;html=1;align=center;verticalAlign=middle;resizable=0;points=[];" vertex="1" connectable="0" parent="0yXIq40xvylqL-H4ASJS-80">
          <mxGeometry x="-0.0667" y="2" relative="1" as="geometry">
            <mxPoint as="offset" />
          </mxGeometry>
        </mxCell>
        <mxCell id="0yXIq40xvylqL-H4ASJS-82" style="edgeStyle=orthogonalEdgeStyle;rounded=0;orthogonalLoop=1;jettySize=auto;html=1;entryX=1;entryY=0.5;entryDx=0;entryDy=0;entryPerimeter=0;" edge="1" parent="1" source="0yXIq40xvylqL-H4ASJS-65" target="0yXIq40xvylqL-H4ASJS-50">
          <mxGeometry relative="1" as="geometry">
            <Array as="points">
              <mxPoint x="500" y="541" />
              <mxPoint x="500" y="449" />
              <mxPoint x="710" y="449" />
              <mxPoint x="710" y="195" />
            </Array>
          </mxGeometry>
        </mxCell>
        <mxCell id="0yXIq40xvylqL-H4ASJS-100" value="Standard USER" style="edgeLabel;html=1;align=center;verticalAlign=middle;resizable=0;points=[];" vertex="1" connectable="0" parent="0yXIq40xvylqL-H4ASJS-82">
          <mxGeometry x="-0.6534" y="-4" relative="1" as="geometry">
            <mxPoint y="1" as="offset" />
          </mxGeometry>
        </mxCell>
        <mxCell id="0yXIq40xvylqL-H4ASJS-86" style="edgeStyle=orthogonalEdgeStyle;rounded=0;orthogonalLoop=1;jettySize=auto;html=1;entryX=0;entryY=0.5;entryDx=0;entryDy=0;entryPerimeter=0;fillColor=#60a917;strokeColor=#2D7600;" edge="1" parent="1" source="0yXIq40xvylqL-H4ASJS-51" target="0yXIq40xvylqL-H4ASJS-50">
          <mxGeometry relative="1" as="geometry" />
        </mxCell>
        <mxCell id="0yXIq40xvylqL-H4ASJS-97" value="ADMIN" style="edgeLabel;html=1;align=center;verticalAlign=middle;resizable=0;points=[];" vertex="1" connectable="0" parent="0yXIq40xvylqL-H4ASJS-86">
          <mxGeometry x="-0.2661" y="1" relative="1" as="geometry">
            <mxPoint as="offset" />
          </mxGeometry>
        </mxCell>
        <mxCell id="0yXIq40xvylqL-H4ASJS-88" value="&lt;span style=&quot;font-weight: 700; text-wrap-mode: nowrap;&quot;&gt;activeDirectory&lt;/span&gt;" style="swimlane;fontStyle=0;childLayout=stackLayout;horizontal=1;startSize=26;fillColor=none;horizontalStack=0;resizeParent=1;resizeParentMax=0;resizeLast=0;collapsible=1;marginBottom=0;whiteSpace=wrap;html=1;" vertex="1" parent="1">
          <mxGeometry x="210" y="80" width="150" height="104" as="geometry" />
        </mxCell>
        <mxCell id="0yXIq40xvylqL-H4ASJS-89" value="+ String: Name" style="text;strokeColor=none;fillColor=none;align=left;verticalAlign=top;spacingLeft=4;spacingRight=4;overflow=hidden;rotatable=0;points=[[0,0.5],[1,0.5]];portConstraint=eastwest;whiteSpace=wrap;html=1;" vertex="1" parent="0yXIq40xvylqL-H4ASJS-88">
          <mxGeometry y="26" width="150" height="26" as="geometry" />
        </mxCell>
        <mxCell id="0yXIq40xvylqL-H4ASJS-90" value="+ String: loginID" style="text;strokeColor=none;fillColor=none;align=left;verticalAlign=top;spacingLeft=4;spacingRight=4;overflow=hidden;rotatable=0;points=[[0,0.5],[1,0.5]];portConstraint=eastwest;whiteSpace=wrap;html=1;" vertex="1" parent="0yXIq40xvylqL-H4ASJS-88">
          <mxGeometry y="52" width="150" height="26" as="geometry" />
        </mxCell>
        <mxCell id="0yXIq40xvylqL-H4ASJS-91" value="+ String: passWord" style="text;strokeColor=none;fillColor=none;align=left;verticalAlign=top;spacingLeft=4;spacingRight=4;overflow=hidden;rotatable=0;points=[[0,0.5],[1,0.5]];portConstraint=eastwest;whiteSpace=wrap;html=1;" vertex="1" parent="0yXIq40xvylqL-H4ASJS-88">
          <mxGeometry y="78" width="150" height="26" as="geometry" />
        </mxCell>
        <mxCell id="0yXIq40xvylqL-H4ASJS-104" style="edgeStyle=orthogonalEdgeStyle;rounded=0;orthogonalLoop=1;jettySize=auto;html=1;startArrow=ERmany;startFill=0;" edge="1" parent="1" source="0yXIq40xvylqL-H4ASJS-2" target="0yXIq40xvylqL-H4ASJS-63">
          <mxGeometry relative="1" as="geometry">
            <Array as="points">
              <mxPoint x="500" y="364" />
              <mxPoint x="410" y="364" />
            </Array>
          </mxGeometry>
        </mxCell>
        <mxCell id="0yXIq40xvylqL-H4ASJS-106" style="edgeStyle=orthogonalEdgeStyle;rounded=0;orthogonalLoop=1;jettySize=auto;html=1;startArrow=ERmany;startFill=0;" edge="1" parent="1" source="0yXIq40xvylqL-H4ASJS-66" target="0yXIq40xvylqL-H4ASJS-10">
          <mxGeometry relative="1" as="geometry" />
        </mxCell>
      </root>
    </mxGraphModel>
  </diagram>
</mxfile>
